<svg id="Layer_1" data-name="Layer 1" xmlns="http://www.w3.org/2000/svg" viewBox="0 0 95.53 45.16"><title>Powered_by_Khoros_black</title><path d="M12.7,7.39a2.14,2.14,0,0,1,.74,1.72,2.13,2.13,0,0,1-.74,1.72,3.16,3.16,0,0,1-2.06.62H8.8v2.16H8.08V6.77h2.56A3.05,3.05,0,0,1,12.7,7.39Zm-.52,3a1.58,1.58,0,0,0,.54-1.26,1.55,1.55,0,0,0-.54-1.27,2.35,2.35,0,0,0-1.56-.45H8.8v3.43h1.82a2.41,2.41,0,0,0,1.56-.45Z" transform="translate(-8.08 -6.36)"/><path d="M15.59,13.32a2.54,2.54,0,0,1-.94-.93,2.87,2.87,0,0,1,0-2.7,2.47,2.47,0,0,1,.94-.93,2.89,2.89,0,0,1,2.68,0,2.47,2.47,0,0,1,.94.93,2.87,2.87,0,0,1,0,2.7,2.4,2.4,0,0,1-.94.93A2.83,2.83,0,0,1,15.59,13.32Zm2.32-.52a1.78,1.78,0,0,0,.68-.71,2.35,2.35,0,0,0,0-2.1,1.78,1.78,0,0,0-.68-.71,2.06,2.06,0,0,0-2,0,1.88,1.88,0,0,0-.69.71,2.35,2.35,0,0,0,0,2.1,1.88,1.88,0,0,0,.69.71A2.06,2.06,0,0,0,17.91,12.8Z" transform="translate(-8.08 -6.36)"/><path d="M28.37,8.47l-1.95,5.14h-.66L24.14,9.4l-1.62,4.21h-.66L19.93,8.47h.66l1.61,4.37,1.66-4.37h.59l1.65,4.37,1.63-4.37Z" transform="translate(-8.08 -6.36)"/><path d="M33.75,11.26H29.44a1.85,1.85,0,0,0,.62,1.29,2.07,2.07,0,0,0,1.41.5,2.23,2.23,0,0,0,.88-.18,1.88,1.88,0,0,0,.69-.5l.39.45a2.2,2.2,0,0,1-.85.63,2.91,2.91,0,0,1-1.13.21A2.8,2.8,0,0,1,30,13.32a2.49,2.49,0,0,1-.95-.93A2.66,2.66,0,0,1,28.75,11a2.67,2.67,0,0,1,.33-1.35,2.3,2.3,0,0,1,.9-.93,2.65,2.65,0,0,1,2.56,0,2.28,2.28,0,0,1,.89.93A2.75,2.75,0,0,1,33.76,11ZM30,9.5a1.85,1.85,0,0,0-.58,1.24h3.65A1.82,1.82,0,0,0,30,9.5Z" transform="translate(-8.08 -6.36)"/><path d="M36.57,8.69a2.6,2.6,0,0,1,1.2-.26V9.1H37.6a1.67,1.67,0,0,0-1.27.5,2,2,0,0,0-.46,1.4v2.62h-.7V8.47h.67v1A1.7,1.7,0,0,1,36.57,8.69Z" transform="translate(-8.08 -6.36)"/><path d="M43.45,11.26H39.14a1.89,1.89,0,0,0,.62,1.29,2.07,2.07,0,0,0,1.41.5,2.23,2.23,0,0,0,.88-.18,1.88,1.88,0,0,0,.69-.5l.39.45a2.2,2.2,0,0,1-.85.63,2.91,2.91,0,0,1-1.13.21,2.74,2.74,0,0,1-1.4-.34,2.45,2.45,0,0,1-1-.93A2.66,2.66,0,0,1,38.45,11a2.67,2.67,0,0,1,.33-1.35,2.37,2.37,0,0,1,.9-.93,2.65,2.65,0,0,1,2.56,0,2.28,2.28,0,0,1,.89.93A2.65,2.65,0,0,1,43.46,11ZM39.72,9.5a1.9,1.9,0,0,0-.58,1.24h3.65A1.82,1.82,0,0,0,39.72,9.5Z" transform="translate(-8.08 -6.36)"/><path d="M49.57,6.36v7.25H48.9v-1a2.15,2.15,0,0,1-.82.79,2.47,2.47,0,0,1-1.16.27,2.6,2.6,0,0,1-1.31-.33,2.35,2.35,0,0,1-.92-.93,3,3,0,0,1,0-2.72,2.26,2.26,0,0,1,.92-.92,2.6,2.6,0,0,1,1.31-.33,2.34,2.34,0,0,1,1.13.26,2.09,2.09,0,0,1,.83.76V6.36ZM48,12.8a1.88,1.88,0,0,0,.69-.71,2.35,2.35,0,0,0,0-2.1A1.88,1.88,0,0,0,48,9.28,1.94,1.94,0,0,0,47,9a2,2,0,0,0-1,.24,1.85,1.85,0,0,0-.68.71,2.35,2.35,0,0,0,0,2.1,1.85,1.85,0,0,0,.68.71,2.11,2.11,0,0,0,1,.25A2.06,2.06,0,0,0,48,12.8Z" transform="translate(-8.08 -6.36)"/><path d="M58,8.76a2.26,2.26,0,0,1,.92.92,3,3,0,0,1,0,2.72,2.35,2.35,0,0,1-.92.93,2.6,2.6,0,0,1-1.31.33,2.47,2.47,0,0,1-1.16-.27,2.25,2.25,0,0,1-.83-.79v1h-.66V6.36h.69V9.45a2.09,2.09,0,0,1,.83-.76,2.34,2.34,0,0,1,1.13-.26A2.6,2.6,0,0,1,58,8.76Zm-.38,4a1.88,1.88,0,0,0,.69-.71,2.35,2.35,0,0,0,0-2.1,1.88,1.88,0,0,0-.69-.71,2.06,2.06,0,0,0-2,0A1.88,1.88,0,0,0,55,10a2.35,2.35,0,0,0,0,2.1,1.88,1.88,0,0,0,.69.71A2.06,2.06,0,0,0,57.65,12.8Z" transform="translate(-8.08 -6.36)"/><path d="M64.88,8.47,62.3,14.23a2.39,2.39,0,0,1-.72,1,1.65,1.65,0,0,1-1,.3,2,2,0,0,1-.69-.12,1.43,1.43,0,0,1-.56-.35l.32-.52a1.25,1.25,0,0,0,.94.39.92.92,0,0,0,.6-.19,1.74,1.74,0,0,0,.47-.67l.22-.5-2.3-5.13h.73l1.93,4.37,1.94-4.37Z" transform="translate(-8.08 -6.36)"/><path d="M93.52,34.16h0a17.91,17.91,0,0,1-9.37,2.64h0a2,2,0,0,1,0-4,14,14,0,0,0,13.93-13.2h4a17.83,17.83,0,0,1-8.56,14.54M102.08,50h-4a14,14,0,0,0-9-12.3l.17-.05.34-.09.29-.09.34-.11.29-.1.34-.12.28-.1.33-.13.28-.12.33-.14.28-.13.32-.15.27-.14a3.18,3.18,0,0,0,.32-.16l.27-.15a3.07,3.07,0,0,0,.31-.17l.08,0A17.84,17.84,0,0,1,102.08,50m1.53-31.13v-.76h-7v.76A12.44,12.44,0,0,1,84.15,31.3a3.52,3.52,0,0,0,0,7h0A12.43,12.43,0,0,1,96.58,50.76v.76h7v-.76A19.36,19.36,0,0,0,95.3,34.81a19.32,19.32,0,0,0,8.31-15.94" transform="translate(-8.08 -6.36)"/><path d="M53.33,29.17a5.75,5.75,0,0,0-4.43.93V29.05H46.37V40.22H48.9v-5.4h0a3.3,3.3,0,0,1,4.43-3.19Z" transform="translate(-8.08 -6.36)"/><path d="M59.83,31.42a3.39,3.39,0,1,0,3.31,3.48v-.09a3.36,3.36,0,0,0-3.31-3.39m5.76,3.38a5.76,5.76,0,1,1-5.76-5.75h0a5.76,5.76,0,0,1,5.76,5.75" transform="translate(-8.08 -6.36)"/><path d="M39,31.42a3.39,3.39,0,1,0,3.31,3.48v-.09A3.36,3.36,0,0,0,39,31.42m5.76,3.38A5.76,5.76,0,1,1,39,29.05h0a5.76,5.76,0,0,1,5.76,5.75" transform="translate(-8.08 -6.36)"/><path d="M14.36,32.93a9.36,9.36,0,0,0,4.76-7.29H16.64a7,7,0,0,1-5.83,6.08V25.64H8.28V40.22h2.53V34.13a7,7,0,0,1,5.83,6.09h2.48a9.35,9.35,0,0,0-4.76-7.29" transform="translate(-8.08 -6.36)"/><path d="M71.14,40.56a4.42,4.42,0,0,0,3.14-1.2,3.3,3.3,0,0,0,.94-2.42c0-2.3-1.85-2.8-3.63-3.28-.94-.28-1.9-.66-1.92-1.47A1.24,1.24,0,0,1,70.94,31h.12c1.14,0,1.38.7,1.42,1.18h2.41a3.5,3.5,0,0,0-3.81-3.13c-1.92,0-3.86,1.17-3.86,3.42,0,1.32.88,2.24,2.64,2.78l.15,0c1.95.68,2.76,1,2.76,1.94a1.17,1.17,0,0,1-.36.88,1.71,1.71,0,0,1-1.23.49,1.64,1.64,0,0,1-1.7-1.42H67a3.76,3.76,0,0,0,4.1,3.37h0" transform="translate(-8.08 -6.36)"/><path d="M31.51,34.06a5,5,0,0,0-5-5,5.09,5.09,0,0,0-2.53.67V25.64H21.5V40.22H24V33.91a2.48,2.48,0,0,1,4.95,0v6.32h2.53Z" transform="translate(-8.08 -6.36)"/></svg>