<?xml version="1.0" ?><svg xmlns="http://www.w3.org/2000/svg" height="24" viewBox="0 0 24 24" width="24"><circle fill="#ffffff" cx="7" cy="6" r="3"/><line style="fill:none;stroke:#ffffff;stroke-width:2;stroke-linecap:round;stroke-linejoin:round;stroke-miterlimit:10;" x1="16" x2="9" y1="12" y2="12"/><path fill="#ffffff" d="M10,25.967C10,26.537,9.537,27,8.967,27h0c-0.544,0-0.995-0.422-1.031-0.965l-0.438-6.57C7.48,19.204,7.263,19,7,19h0  c-0.263,0-0.48,0.204-0.498,0.466l-0.438,6.57C6.028,26.578,5.577,27,5.033,27h0C4.463,27,4,26.537,4,25.967V13c0-1.105,0.895-2,2-2  h6v2h-1c-0.552,0-1,0.448-1,1V25.967z"/><polyline points="12,18 25,18 25,6   12,6 " style="fill:none;stroke:#ffffff;stroke-width:2;stroke-linejoin:round;stroke-miterlimit:10;"/><line style="fill:none;stroke:#ffffff;stroke-width:2;stroke-linecap:round;stroke-linejoin:round;stroke-miterlimit:10;" x1="17" x2="17" y1="6" y2="5"/><line style="fill:none;stroke:#ffffff;stroke-width:2;stroke-linecap:round;stroke-linejoin:round;stroke-miterlimit:10;" x1="13" x2="15" y1="26" y2="18"/><line style="fill:none;stroke:#ffffff;stroke-width:2;stroke-linecap:round;stroke-linejoin:round;stroke-miterlimit:10;" x1="21" x2="19" y1="26" y2="18"/></svg>